<svg width="21" height="21" viewBox="0 0 21 21" fill="none" xmlns="http://www.w3.org/2000/svg">
<path d="M14.5292 21C14.4215 21 14.319 20.9432 14.263 20.8465C14.1932 20.7259 14.2132 20.5734 14.3118 20.4748C15.9709 18.8156 16.7437 16.8455 16.7437 14.2746C16.7437 14.1047 16.8814 13.967 17.0513 13.967C17.2212 13.967 17.3589 14.1047 17.3589 14.2746C17.3589 16.5442 16.7583 18.4366 15.5284 20.0248C16.851 19.4629 17.8379 18.5971 18.4143 17.4826C19.1197 16.1186 19.2186 14.3846 18.7002 12.4682L16.7981 5.43604C16.7767 5.35704 16.7877 5.27279 16.8286 5.20188C16.8696 5.13096 16.9371 5.07936 17.0162 5.05836C17.1803 5.01481 17.3497 5.11246 17.3932 5.27669C17.395 5.2837 17.3966 5.29076 17.398 5.29781L19.2941 12.3075C19.8533 14.375 19.7381 16.2623 18.9608 17.7652C18.1556 19.3222 16.651 20.4371 14.6096 20.9893C14.5829 20.9965 14.5559 21 14.5292 21ZM6.47078 21C6.44412 21 6.41713 20.9965 6.39043 20.9893C4.34904 20.4371 2.84443 19.3222 2.03921 17.7652C1.26197 16.2623 1.14671 14.375 1.70596 12.3076L3.59969 5.30643C3.60137 5.29597 3.60359 5.28551 3.60638 5.27517C4.44445 2.16923 7.27919 0 10.5 0C11.8828 0 13.2244 0.395964 14.3796 1.14507C15.5046 1.87462 16.3995 2.90046 16.9675 4.11164C17.0396 4.26545 16.9734 4.44867 16.8196 4.52077C16.6657 4.59308 16.4826 4.52676 16.4104 4.37291C15.8913 3.2659 15.0733 2.32821 14.0448 1.66133C12.9895 0.976949 11.7638 0.615233 10.5 0.615233C7.56704 0.615233 4.9845 2.58316 4.20857 5.40515C4.20688 5.41549 4.20467 5.42582 4.20192 5.43604L2.29983 12.4682C1.78143 14.3846 1.88028 16.1186 2.58566 17.4826C3.16205 18.5972 4.14897 19.4629 5.47156 20.0248C4.24167 18.4366 3.64107 16.5442 3.64107 14.2746C3.64107 14.1047 3.77881 13.967 3.94869 13.967C4.11858 13.967 4.25631 14.1047 4.25631 14.2746C4.25631 16.8455 5.02908 18.8156 6.68824 20.4748C6.7868 20.5734 6.80678 20.7259 6.73697 20.8465C6.68098 20.9432 6.57853 21 6.47078 21ZM12.6836 21C12.6049 21 12.5261 20.9699 12.4661 20.9099C12.3459 20.7897 12.3459 20.595 12.4661 20.4748C13.4036 19.5373 14.058 18.5006 14.4501 17.3123C13.6514 16.9867 12.6772 16.7674 11.6169 16.6756C11.4476 16.661 11.3223 16.512 11.3369 16.3427C11.3515 16.1735 11.5006 16.0479 11.6699 16.0628C12.7642 16.1574 13.7773 16.3829 14.6211 16.718C14.8072 15.9664 14.898 15.1558 14.898 14.2748V6.63664C14.898 5.89635 14.7521 5.17879 14.4739 4.51675C14.1426 6.09803 13.059 7.43788 11.5314 8.07489L6.10205 10.3389V12.7289C6.10205 12.8988 5.96432 13.0365 5.79443 13.0365C5.62455 13.0365 5.48682 12.8988 5.48682 12.7289V10.141C5.48673 10.1364 5.48673 10.1317 5.48682 10.1271V6.6366C5.48682 5.01181 6.1187 3.48509 7.26611 2.33768C7.38625 2.21759 7.58103 2.21759 7.70112 2.33768C7.82126 2.45786 7.82126 2.6526 7.70112 2.77273C6.66995 3.8039 6.10205 5.17612 6.10205 6.63656V9.67229L7.59493 9.04975C8.74944 8.56651 9.71937 7.7681 10.4003 6.74049C11.0788 5.71658 11.4374 4.51634 11.4374 3.26964C11.4374 3.09971 11.5751 2.96202 11.745 2.96202C11.9149 2.96202 12.0526 3.09971 12.0526 3.26964C12.0526 4.63767 11.6586 5.95533 10.9132 7.08031C10.7075 7.39067 10.478 7.68192 10.2269 7.95226L11.2946 7.50703C12.8876 6.84271 13.9295 5.30516 13.9641 3.57688C13.7704 3.29129 13.5482 3.02207 13.2989 2.77277C13.1788 2.6526 13.1788 2.45786 13.2989 2.33772C13.4191 2.21763 13.6138 2.21763 13.7339 2.33772C14.8813 3.48513 15.5132 5.01181 15.5132 6.63664V14.2746C15.5132 16.9817 14.6588 19.1522 12.9011 20.9098C12.841 20.9699 12.7623 21 12.6836 21ZM8.31644 21C8.23773 21 8.15898 20.9699 8.09893 20.9099C6.34125 19.1522 5.48677 16.9818 5.48677 14.2747C5.48677 14.1048 5.6245 13.9671 5.79439 13.9671C5.96428 13.9671 6.10201 14.1048 6.10201 14.2747C6.10201 15.1557 6.19277 15.9663 6.37886 16.7179C7.52459 16.2626 8.97076 16.0134 10.492 16.0125H10.4922C10.662 16.0125 10.7997 16.1501 10.7998 16.32C10.7999 16.4898 10.6622 16.6277 10.4924 16.6277C9.02117 16.6286 7.63193 16.8707 6.5499 17.3122C6.94188 18.5006 7.59637 19.5373 8.5339 20.4748C8.65404 20.595 8.65404 20.7898 8.5339 20.9099C8.4739 20.9699 8.39519 21 8.31644 21Z" fill="url(#paint0_linear_1_463)"/>
<defs>
<linearGradient id="paint0_linear_1_463" x1="22.7874" y1="14" x2="-0.706159" y2="10.1164" gradientUnits="userSpaceOnUse">
<stop stop-color="#F5B7CA"/>
<stop offset="0.69936" stop-color="#A83F98"/>
<stop offset="1" stop-color="#81017F"/>
</linearGradient>
</defs>
</svg>
